<svg id="visual" viewBox="0 0 900 600" width="900" height="600" xmlns="http://www.w3.org/2000/svg" xmlns:xlink="http://www.w3.org/1999/xlink" version="1.1"><rect x="0" y="0" width="900" height="600" fill="#FFFFFF"></rect><path d="M449 0L432.5 20C416 40 383 80 378.8 120C374.7 160 399.3 200 416.8 240C434.3 280 444.7 320 446.8 360C449 400 443 440 438 480C433 520 429 560 427 580L425 600L0 600L0 580C0 560 0 520 0 480C0 440 0 400 0 360C0 320 0 280 0 240C0 200 0 160 0 120C0 80 0 40 0 20L0 0Z" fill="#38BDF8" stroke-linecap="round" stroke-linejoin="miter"></path></svg>