<svg id="visual" viewBox="0 0 900 600" width="900" height="600" xmlns="http://www.w3.org/2000/svg" xmlns:xlink="http://www.w3.org/1999/xlink" version="1.1"><rect x="0" y="0" width="900" height="600" fill="#38BDF8"></rect><path d="M0 532L30 523C60 514 120 496 180 496.5C240 497 300 516 360 525.2C420 534.3 480 533.7 540 524.7C600 515.7 660 498.3 720 500.8C780 503.3 840 525.7 870 536.8L900 548L900 601L870 601C840 601 780 601 720 601C660 601 600 601 540 601C480 601 420 601 360 601C300 601 240 601 180 601C120 601 60 601 30 601L0 601Z" fill="#FFFFFF" stroke-linecap="round" stroke-linejoin="miter"></path></svg>